HIERARCHY
ROOT Hips
{
 OFFSET 0.000000 0.000000 0.000000
 CHANNELS 6 Xposition Yposition Zposition Yrotation Xrotation Zrotation
 JOINT Chest
 {
  OFFSET 0.000000 9.585900 0.002600
  CHANNELS 3 Yrotation Xrotation Zrotation
  JOINT Chest2
  {
   OFFSET 0.000000 9.601200 -0.005300
   CHANNELS 3 Yrotation Xrotation Zrotation
   JOINT Chest3
   {
    OFFSET 0.000000 9.561800 0.000000
    CHANNELS 3 Yrotation Xrotation Zrotation
    JOINT Chest4
    {
     OFFSET 0.000000 9.552100 0.000000
     CHANNELS 3 Yrotation Xrotation Zrotation
     JOINT Neck
     {
      OFFSET 0.000000 14.453000 0.000000
      CHANNELS 3 Yrotation Xrotation Zrotation
      JOINT Head
      {
       OFFSET 0.000000 8.936500 -0.011300
       CHANNELS 3 Yrotation Xrotation Zrotation
       End Site
       {
        OFFSET 0.000000 17.073600 -0.006000
       }
      }
     }
     JOINT RightCollar
     {
      OFFSET -2.921100 9.558500 0.000000
      CHANNELS 3 Yrotation Xrotation Zrotation
      JOINT RightShoulder
      {
       OFFSET -13.519700 0.000000 0.000000
       CHANNELS 3 Yrotation Xrotation Zrotation
       JOINT RightElbow
       {
        OFFSET 0.000000 -29.696600 0.000000
        CHANNELS 3 Yrotation Xrotation Zrotation
        JOINT RightWrist
        {
         OFFSET 0.000000 -24.004700 0.000000
         CHANNELS 3 Yrotation Xrotation Zrotation
         End Site
         {
          OFFSET 0.000000 -17.728500 0.000000
         }
        }
       }
      }
     }
     JOINT LeftCollar
     {
      OFFSET 2.921100 9.558500 0.000000
      CHANNELS 3 Yrotation Xrotation Zrotation
      JOINT LeftShoulder
      {
       OFFSET 13.519700 0.000000 0.000000
       CHANNELS 3 Yrotation Xrotation Zrotation
       JOINT LeftElbow
       {
        OFFSET 0.000000 -29.696600 0.000000
        CHANNELS 3 Yrotation Xrotation Zrotation
        JOINT LeftWrist
        {
         OFFSET 0.000000 -24.004700 0.000000
         CHANNELS 3 Yrotation Xrotation Zrotation
         End Site
         {
          OFFSET 0.000000 -17.728500 0.000000
         }
        }
       }
      }
     }
    }
   }
  }
 }
 JOINT RightHip
 {
  OFFSET -7.771700 -0.012900 -0.001300
  CHANNELS 3 Yrotation Xrotation Zrotation
  JOINT RightKnee
  {
   OFFSET 0.000000 -40.869800 0.001200
   CHANNELS 3 Yrotation Xrotation Zrotation
   JOINT RightAnkle
   {
    OFFSET 0.000000 -39.717900 0.002100
    CHANNELS 3 Yrotation Xrotation Zrotation
    JOINT RightToe
    {
     OFFSET 0.000000 -4.965400 11.033500
     CHANNELS 3 Yrotation Xrotation Zrotation
     End Site
     {
      OFFSET 0.000000 -1.423100 5.872300
     }
    }
   }
  }
 }
 JOINT LeftHip
 {
  OFFSET 7.771700 -0.012900 -0.001300
  CHANNELS 3 Yrotation Xrotation Zrotation
  JOINT LeftKnee
  {
   OFFSET 0.000000 -40.869800 0.001200
   CHANNELS 3 Yrotation Xrotation Zrotation
   JOINT LeftAnkle
   {
    OFFSET 0.000000 -39.717900 0.002100
    CHANNELS 3 Yrotation Xrotation Zrotation
    JOINT LeftToe
    {
     OFFSET 0.000000 -4.965400 11.033500
     CHANNELS 3 Yrotation Xrotation Zrotation
     End Site
     {
      OFFSET 0.000000 -1.423100 5.872300
     }
    }
   }
  }
 }
}
MOTION
Frames: 5
Frame Time: 0.008333
-9.759625 54.698692 23.275930 -173.962898 -31.157920 -10.407553 -1.382418 11.558425 3.881200 -0.683337 6.701314 1.914511 -0.834781 8.350386 2.370973 -0.674847 6.709654 1.913289 3.376388 21.623965 -0.688106 3.804242 -2.565415 -1.510527 0.680570 1.866702 -2.228692 -14.873654 -5.937426 4.725683 32.435697 -75.971916 -16.345583 12.550076 -1.907915 -24.059850 -8.521011 2.273018 -3.060358 6.213421 1.127747 -1.418974 -83.947114 -76.131127 89.008200 10.364896 -7.121556 -6.983682 -20.643668 -33.074198 4.786469 27.917431 85.397934 24.887443 0.386946 -17.026397 -0.927304 0.029652 0.473478 -0.031344 -13.578747 -45.681995 10.085158 178.758828 80.912092 173.648257 -1.675090 -17.969380 3.544184 -0.037257 -0.626336 -0.006411
-9.744675 54.725610 23.275753 -173.961926 -31.150158 -10.399904 -1.376607 11.575529 3.888603 -0.686510 6.688825 1.907452 -0.824243 8.364306 2.375756 -0.686523 6.688769 1.907495 3.374045 21.630579 -0.686242 3.785031 -2.583793 -1.509635 0.727677 1.900914 -2.220327 -14.872703 -5.913425 4.707941 32.981406 -75.970449 -16.793476 12.522318 -1.937112 -24.097932 -8.509507 2.285420 -3.069750 6.199491 1.070262 -1.381845 -83.840370 -76.143433 88.884765 10.346647 -7.143589 -7.000930 -20.681022 -33.122689 4.785331 28.181134 85.467534 25.174262 0.425295 -17.072694 -0.969877 0.019150 0.478422 -0.020929 -13.540856 -45.711523 10.106341 178.807989 80.891699 173.687561 -1.685962 -17.981633 3.568382 -0.060118 -0.618384 -0.001918
-9.731925 54.752052 23.273358 -173.958999 -31.152636 -10.395971 -1.371277 11.601691 3.898064 -0.663579 6.716310 1.922449 -0.840595 8.340586 2.365174 -0.683205 6.690780 1.908236 3.359588 21.619300 -0.689173 3.754000 -2.615476 -1.511938 0.751512 1.897027 -2.219930 -14.904188 -5.926050 4.703062 33.287787 -75.943260 -17.022184 12.527993 -1.955673 -24.100066 -8.510616 2.271637 -3.080200 6.178047 1.022794 -1.365570 -83.771403 -76.138662 88.802627 10.346228 -7.145198 -6.997383 -20.694891 -33.155938 4.778000 28.285261 85.537392 25.312304 0.442604 -17.126495 -0.992436 0.029445 0.492496 -0.022640 -13.503257 -45.726037 10.148947 178.837291 80.869192 173.683261 -1.735040 -17.994081 3.623699 -0.066661 -0.614113 -0.003003
-9.722331 54.776256 23.272052 -173.954006 -31.139890 -10.386139 -1.345771 11.636112 3.919461 -0.674007 6.693762 1.912227 -0.840225 8.340334 2.365656 -0.642719 6.725184 1.923641 3.294004 21.561356 -0.709914 3.743018 -2.626552 -1.512946 0.725854 1.851531 -2.226792 -14.908029 -5.890361 4.690274 33.498832 -75.969994 -17.218434 12.528906 -1.964958 -24.108388 -8.555661 2.225536 -3.093544 6.154292 0.971589 -1.350893 -83.719436 -76.122949 88.748637 10.357470 -7.135330 -7.003702 -20.755519 -33.206632 4.773382 28.678910 85.601295 25.716848 0.477500 -17.170991 -1.036877 0.026428 0.500532 -0.022397 -13.486827 -45.758854 10.163757 178.857184 80.848877 173.686051 -1.751456 -18.001669 3.644990 -0.069785 -0.610531 -0.003572
-9.714799 54.800172 23.269793 -173.948176 -31.126084 -10.374904 -1.334534 11.646893 3.926364 -0.669350 6.695775 1.914068 -0.802799 8.372914 2.384350 -0.688436 6.678343 1.906293 3.310576 21.577318 -0.701298 3.696119 -2.667397 -1.512335 0.741096 1.850194 -2.217583 -14.883873 -5.816973 4.690093 33.743835 -76.033307 -17.505392 12.547788 -1.967847 -24.087101 -8.554154 2.232654 -3.101066 6.125255 0.914280 -1.337597 -83.655676 -76.110061 88.690210 10.357184 -7.126699 -7.017480 -20.819945 -33.255465 4.768756 29.189373 85.655903 26.230423 0.504724 -17.216026 -1.078225 0.021423 0.509210 -0.022667 -13.470319 -45.791621 10.164731 178.905372 80.830943 173.723876 -1.753743 -18.008751 3.657235 -0.069566 -0.607402 -0.003450
